<svg width="204" height="30" viewBox="0 0 204 30" fill="none" xmlns="http://www.w3.org/2000/svg">
<path d="M202.707 15.7071C203.098 15.3166 203.098 14.6834 202.707 14.2929L196.343 7.92892C195.953 7.53839 195.319 7.53839 194.929 7.92892C194.538 8.31944 194.538 8.9526 194.929 9.34313L200.586 15L194.929 20.6568C194.538 21.0474 194.538 21.6805 194.929 22.0711C195.319 22.4616 195.953 22.4616 196.343 22.0711L202.707 15.7071ZM8.74228e-08 16L10.1 16L10.1 14L-8.74228e-08 14L8.74228e-08 16ZM30.3 16L50.5 16L50.5 14L30.3 14L30.3 16ZM70.7 16L90.9 16L90.9 14L70.7 14L70.7 16ZM111.1 16L131.3 16L131.3 14L111.1 14L111.1 16ZM151.5 16L171.7 16L171.7 14L151.5 14L151.5 16ZM191.9 16L202 16L202 14L191.9 14L191.9 16ZM203.414 16.4142C204.195 15.6331 204.195 14.3668 203.414 13.5858L190.686 0.857848C189.905 0.0767992 188.639 0.0767993 187.858 0.857848C187.077 1.6389 187.077 2.90523 187.858 3.68628L199.172 15L187.858 26.3137C187.077 27.0947 187.077 28.3611 187.858 29.1421C188.639 29.9232 189.905 29.9232 190.686 29.1421L203.414 16.4142ZM1.74846e-07 17L10.1 17L10.1 13L-1.74846e-07 13L1.74846e-07 17ZM30.3 17L50.5 17L50.5 13L30.3 13L30.3 17ZM70.7 17L90.9 17L90.9 13L70.7 13L70.7 17ZM111.1 17L131.3 17L131.3 13L111.1 13L111.1 17ZM151.5 17L171.7 17L171.7 13L151.5 13L151.5 17ZM191.9 17L202 17L202 13L191.9 13L191.9 17Z" fill="#9BBDCF"/>
</svg>
